<svg width="227" height="330" viewBox="0 0 227 330" fill="none" xmlns="http://www.w3.org/2000/svg">
<path fill-rule="evenodd" clip-rule="evenodd" d="M27.7741 113.32C11.0537 102.323 0 83.2843 0 61.6391C0 27.5968 27.342 0 61.07 0H165.703C199.431 0 226.773 27.5968 226.773 61.6391C226.773 83.2843 215.719 102.323 198.998 113.32C215.719 124.317 226.773 143.356 226.773 165.001C226.773 199.043 199.431 226.64 165.703 226.64H164.589C148.646 226.64 134.129 220.473 123.253 210.374V267.799C123.253 302.222 95.3128 330 61.3468 330C27.688 330 0 302.473 0 268.361C0 246.716 11.0532 227.677 27.773 216.681C11.0532 205.684 0 186.645 0 165.001C0 143.356 11.0537 124.317 27.7741 113.32ZM123.253 165.001C123.253 188.043 141.76 206.722 164.589 206.722H165.703C188.532 206.722 207.039 188.043 207.039 165.001C207.039 141.958 188.532 123.279 165.703 123.279H164.589C141.76 123.279 123.253 141.958 123.253 165.001ZM103.519 123.279H61.07C38.2404 123.279 19.7338 141.958 19.7338 165.001C19.7338 187.996 38.1658 206.646 60.931 206.722H60.9958H103.519V123.279ZM61.07 226.64C61.0236 226.64 60.9773 226.64 60.931 226.64C38.1658 226.715 19.7338 245.365 19.7338 268.361C19.7338 291.333 38.4481 310.082 61.3468 310.082C84.5528 310.082 103.519 291.082 103.519 267.799V226.64H61.07ZM103.519 103.36H61.07C38.2404 103.36 19.7338 84.6813 19.7338 61.6391C19.7338 38.5968 38.2404 19.9177 61.07 19.9177H103.519V103.36ZM165.703 103.36H123.253V19.9177H165.703C188.532 19.9177 207.039 38.5968 207.039 61.6391C207.039 84.6813 188.532 103.36 165.703 103.36Z" fill="url(#paint0_linear_841_612)"/>
<defs>
<linearGradient id="paint0_linear_841_612" x1="113.386" y1="0" x2="113.386" y2="279.5" gradientUnits="userSpaceOnUse">
<stop stop-color="#FFBF00"/>
<stop offset="1" stop-color="#003C7C"/>
</linearGradient>
</defs>
</svg>
